<svg xmlns="http://www.w3.org/2000/svg" width="984.888" height="779.741" viewBox="0 0 984.888 779.741">
  <g id="Group_4" data-name="Group 4" transform="translate(-660.776 -146.175)">
    <path id="Path_639" data-name="Path 639" d="M2953.377,4995.487s12.045-20.119,37.355-14.173,23.785,31.713,23.785,31.713L3044.1,5039.1l-20.431,22.413-70.288-66.025" transform="translate(-2004 -4584)" fill="#aaa"/>
    <path id="Path_638" data-name="Path 638" d="M3041.787,5040.859l70.155,63.745s13.652,12.291,1.567,29.747-84.657,76.905-84.657,76.905l-62.356,32.467c-.516-.773-10.049-9.019-10.049-9.019l89.412-141.2-23.706-35.3C3022.153,5057.942,3041.787,5040.859,3041.787,5040.859Z" transform="translate(-2004 -4584)" fill="#820025"/>
    <path id="Rectangle_9" data-name="Rectangle 9" d="M40,0H293a12,12,0,0,1,12,12V70a12,12,0,0,1-12,12H40A40,40,0,0,1,0,42V40A40,40,0,0,1,40,0Z" transform="translate(660.776 666.051) rotate(-43)" fill="#87efff"/>
    <path id="Path_626" data-name="Path 626" d="M2963.154,5237.629l108.668-98.979a3.275,3.275,0,0,0,.886-1.116c1.42-3.017,7.593-18.451-.291-29.839-8.859-12.8-50.2-50.2-50.2-50.2l-37.9,38.39,26.578,26.085c.492-1.477-155.036,141.747-155.036,141.747l5.777,41.208,56.268,60.28,109.233-101.488,27.562-23.624c.492-.493-38.882-42.82-38.882-42.82l-49.8,44.229Z" transform="translate(-2004 -4584)" fill="#c70039"/>
    <path id="Path_627" data-name="Path 627" d="M2864.354,5255.572l-8.513-9.185c.224.224-8.737-21.058-8.737-21.058l2.24-21.282a81.656,81.656,0,0,0,14.67-12.935,71.5,71.5,0,0,0,12.079-22.335c1.791-5.391,2.469-12.4,2.981-16.236a84.4,84.4,0,0,0,.513-18s53.989,54.662,54.885,56.454S2864.354,5255.572,2864.354,5255.572Z" transform="translate(-2004 -4584)" fill="#fff"/>
    <path id="Path_628" data-name="Path 628" d="M2849.025,5203.61l-19.782,14.581s-16.062-15.644-18.456-24.472-4.355-12.317-1.832-26.437,10.983-28.8,26.992-34.208,26.537-4.282,30.616-3.263,27.429-33.038,27.429-33.038-13.791,23.453-14.1,37.626-2.141,27.888-2.141,27.888-2.6,10.375-6.016,17.539a39.781,39.781,0,0,1-7.648,11.114s-6.43,6.622-10.2,9.789S2849.025,5203.61,2849.025,5203.61Z" transform="translate(-2004 -4584)" fill="#c70039"/>
    <path id="Path_629" data-name="Path 629" d="M2846.993,5225.357l2.353-21.782c.06,0-20.333,14.662-20.333,14.662l5.973,6.335a34.15,34.15,0,0,1,6.607-.407A18.862,18.862,0,0,1,2846.993,5225.357Z" transform="translate(-2004 -4584)" fill="#aaa"/>
    <path id="Path_630" data-name="Path 630" d="M2894.6,5150.01s15.627-15.326,16.532-30.229-5.853-20.454-5.853-20.454-6.094-4.948-10.679-1.81-10.5,19.971-10.5,19.971-4.948,12.549-4.163,17.075S2894.6,5150.01,2894.6,5150.01Z" transform="translate(-2004 -4584)" fill="#aaa"/>
    <path id="Path_631" data-name="Path 631" d="M2874.956,5191.307s10.824,8.177,15.217,1.667-3.53-13.883-3.53-13.883" transform="translate(-2004 -4584)" fill="none" stroke="#23292f" stroke-width="5"/>
    <path id="Path_632" data-name="Path 632" d="M2874.956,5191.307s10.824,8.177,15.217,1.667-3.53-13.883-3.53-13.883" transform="translate(-1984 -4605)" fill="none" stroke="#23292f" stroke-width="5"/>
    <path id="Path_633" data-name="Path 633" d="M2779.205,5263.714h248.55l26.085-23c0-1.477,29.659,23.953,26.906,45.264s-7.342,32.655-32.63,53.583-37.524,34.618-37.524,34.618l63.839,76.185,213.325.9,49.509,43.46s1.568,7.169-1.344,8.065-46.04-.128-46.04-.128-.511-1.463-10.368-13.112-8.446-19.746-8.446-19.746l-231.335,13.941s-11.532-11.3-13.061-9.877-60.856-72.06-60.856-72.06-8.682.927-12.792-1.989-35.224-34.672-35.224-34.672l52.525-49.167-123.9-.172,143.245,158.884s6.2,6.375,6.376,12.58-2.24,15.337-2.24,15.337H2885.412s-4.48-4.135-2.24-7.065,23.609-16.371,23.609-16.371h49.457s6.893-5.372,6.031-9.062-13.958-17.821-13.958-17.821Z" transform="translate(-2004 -4584)" fill="#fafafa"/>
    <ellipse id="Ellipse_5" data-name="Ellipse 5" cx="19" cy="18.5" rx="19" ry="18.5" transform="translate(815 639)" fill="#fff"/>
    <path id="Path_634" data-name="Path 634" d="M2778.519,5263.042s-20.621-17.936-34.529-15.154-19.566,11.318-19.566,11.318-6.906,9.3,10.071,25.513S2904.684,5478.8,2904.684,5478.8s66.7,4.193,69.58-.259,0-11.247,0-11.247Z" transform="translate(-2004 -4584)" fill="#c70039"/>
    <path id="Path_635" data-name="Path 635" d="M3016.041,5509.916l275.148-.211s24.654-19.6-19.6-40.879c-39.6-19.048-195.448-1.477-229.859,1.348-3.753.308-16.785,3.549-16.785,3.549s-23.9,17.11-9.783,35.583" transform="translate(-2004 -4584)" fill="#c70039"/>
    <path id="Path_636" data-name="Path 636" d="M2983.929,5096.476l-27.069-25.762s-5.426,3.491-11.468,2.819a18.014,18.014,0,0,1-10.071-4.892l-13.715,12.948-17.6-19.087,13.14-10.934s-8.057-20.19,5.467-31.316,26.376-22.06,26.376-22.06,10.74-7.93,22.988,3.358,51.774,53.95,51.774,53.95l-1.713,2.183Z" transform="translate(-2004 -4584)" fill="#fafafa"/>
    <path id="Path_637" data-name="Path 637" d="M2980.61,4991.021l23.9-22.079s2.582-2.435,9.591,3.394,7.525,10.624,7.525,10.624,1.18,5.313-8.337,12.912a169.189,169.189,0,0,0-16.453,15.051s-11.583-1.328-16.231-18" transform="translate(-2004 -4584)" fill="#fafafa"/>
    <path id="Path_640" data-name="Path 640" d="M2702.411,5155.607s71.733-345.173,415.023-327.26c199.451,10.408,325.911,139.864,368.187,283.267,30.435,103.235-.125,250.476-28.035,305.52" transform="translate(-2004 -4639.167)" fill="none" stroke="#87efff" stroke-width="5"/>
    <path id="Path_641" data-name="Path 641" d="M2804.27,5020.863S2906.25,4835,3059.635,4835" transform="translate(-2015 -4584)" fill="none" stroke="#87efff" stroke-width="5"/>
    <path id="Path_642" data-name="Path 642" d="M3120.391,4711.169s312.092-44.493,442.309,311.454" transform="translate(-2021.7 -4560.642)" fill="none" stroke="#87efff" stroke-width="5"/>
    <line id="Line_18" data-name="Line 18" y1="44" x2="19" transform="translate(1511.5 216.5)" fill="none" stroke="#87efff" stroke-width="5"/>
    <line id="Line_19" data-name="Line 19" y1="60" x2="114" transform="translate(1530.5 231.5)" fill="none" stroke="#87efff" stroke-width="5"/>
    <line id="Line_20" data-name="Line 20" x2="52" y2="5" transform="translate(1550.5 324.5)" fill="none" stroke="#87efff" stroke-width="5"/>
  </g>
</svg>
